<svg width="613" height="133" viewBox="0 0 613 133" fill="none" xmlns="http://www.w3.org/2000/svg">
<path d="M217.098 54.3944H263.449C264.685 54.3944 265.753 54.8795 266.652 55.8498C267.551 56.8201 268 57.9723 268 59.3064V82.9566C268 98.966 262.719 111.337 252.156 120.069C241.594 128.68 227.492 132.986 209.851 132.986C192.322 132.986 178.501 128.802 168.388 120.433C158.275 111.943 153.219 99.2692 153.219 82.4108V51.8475C153.219 35.7168 158.387 23.4066 168.725 14.9168C179.063 6.30567 192.828 2.00012 210.019 2.00012C227.324 2.00012 241.313 5.94182 251.988 13.8252C262.663 21.5873 268 31.1687 268 42.5693C268 43.6609 267.607 44.6311 266.82 45.4801C266.146 46.2078 265.303 46.5717 264.292 46.5717H227.043C224.795 46.5717 223.166 45.9046 222.155 44.5705C219.908 41.4171 218.222 39.5979 217.098 39.1127C214.514 38.0212 212.154 37.4754 210.019 37.4754C201.367 37.4754 197.041 42.0235 197.041 51.1198V82.047C197.041 92.356 201.648 97.5106 210.862 97.5106C220.301 97.5106 225.02 93.1444 225.02 84.412H217.098C215.862 84.412 214.795 83.9268 213.896 82.9566C212.997 81.9863 212.548 80.8341 212.548 79.5V59.3064C212.548 57.9723 212.997 56.8201 213.896 55.8498C214.795 54.8795 215.862 54.3944 217.098 54.3944Z" fill="#306EF7"/>
<path d="M513.546 41.8395C513.556 29.5091 517.887 19.4791 526.538 11.7495C535.293 4.01999 546.72 0.161038 560.82 0.172647C575.023 0.18434 586.598 4.24356 595.545 12.3503C604.595 20.4571 609.117 28.9229 609.11 37.7476C609.109 38.8356 608.748 39.8024 608.027 40.648C607.408 41.3728 606.688 41.7349 605.864 41.7342L574.989 41.7088C572.622 41.7068 570.461 40.6775 568.507 38.6208C566.553 36.5641 563.93 35.5344 560.636 35.5317C555.696 35.5277 553.225 37.218 553.222 40.6029C553.221 42.4161 554.403 43.9282 556.769 45.139C559.238 46.3499 563.766 47.4416 570.352 48.4141C585.685 50.7236 596.591 54.9636 603.07 61.1341C609.651 67.1839 612.937 76.4344 612.927 88.8856C612.917 101.216 608.071 111.306 598.39 119.156C588.813 126.885 576.253 130.743 560.712 130.73C545.172 130.717 532.979 126.959 524.134 119.457C515.289 111.955 510.871 102.824 510.88 92.0656C510.881 90.9776 511.19 90.0712 511.808 89.3464C512.53 88.5008 513.353 88.0783 514.279 88.0791L543.611 88.1033C545.773 88.105 548.139 89.3158 550.71 91.7357C553.384 94.1556 557.036 95.3675 561.668 95.3713C569.387 95.3777 573.248 93.6884 573.25 90.3036C573.252 88.1277 571.864 86.4945 569.086 85.4043C566.308 84.1931 561.061 82.9799 553.343 81.7647C526.793 77.6327 513.527 64.3243 513.546 41.8395Z" fill="#306EF7"/>
<path d="M467.893 4.22284L498.151 4.24776C499.283 4.24869 500.261 4.73304 501.083 5.70081C501.906 6.66858 502.316 7.81734 502.315 9.14708L502.255 82.0415C502.241 98.9655 497.754 111.715 488.793 120.291C479.832 128.746 467.632 132.967 452.194 132.954C436.86 132.941 424.667 128.7 415.617 120.231C406.67 111.761 402.204 99.0041 402.218 81.9591L402.278 9.06472C402.279 7.73497 402.691 6.58689 403.516 5.62048C404.34 4.65406 405.318 4.17132 406.45 4.17226L436.708 4.19717C437.84 4.1981 438.818 4.68245 439.64 5.65022C440.463 6.61799 440.874 7.76675 440.872 9.0965L440.812 82.5349C440.804 91.8431 444.608 96.5004 452.225 96.5066C459.841 96.5129 463.652 91.8619 463.66 82.5537L463.721 9.11531C463.722 7.78556 464.134 6.63748 464.958 5.67107C465.783 4.70465 466.761 4.22191 467.893 4.22284Z" fill="#306EF7"/>
<path d="M363.711 4.1371L388.103 4.15718C389.235 4.15812 390.212 4.64247 391.035 5.61024C391.857 6.57801 392.268 7.72677 392.267 9.05651L392.171 126.195C392.17 127.525 391.757 128.673 390.933 129.639C390.109 130.606 389.131 131.089 387.998 131.088L360.056 131.065C358.924 131.064 357.946 130.579 357.124 129.612C356.301 128.644 355.891 127.495 355.892 126.165L355.933 76.4812L345.727 96.0563C344.078 99.0771 342.173 100.587 340.012 100.585L329.205 100.576C327.044 100.574 325.141 99.0616 323.497 96.038L313.324 76.4461L313.283 126.13C313.282 127.46 312.869 128.608 312.045 129.575C311.221 130.541 310.243 131.024 309.111 131.023L281.168 131C280.036 130.999 279.059 130.514 278.236 129.547C277.414 128.579 277.003 127.43 277.004 126.1L277.1 8.96169C277.102 7.63195 277.514 6.48387 278.338 5.51745C279.162 4.55104 280.141 4.0683 281.273 4.06923L305.665 4.08931C308.546 4.09168 310.758 5.72547 312.299 8.99067L334.648 52.5281L357.069 9.02753C358.615 5.76487 360.829 4.13473 363.711 4.1371Z" fill="#306EF7"/>
<path d="M62.6815 84.2412L62.6815 53.325C62.6815 52.2136 63.1562 51.2538 64.1055 50.4456C65.0549 49.6373 66.1823 49.2331 67.4877 49.2331L182.48 49.2332C183.785 49.2332 184.913 49.6373 185.862 50.4456C186.811 51.2538 187.286 52.2136 187.286 53.325L187.286 84.2412C187.286 85.3526 186.811 86.3124 185.862 87.1206C184.913 87.9289 183.785 88.333 182.48 88.333L67.4877 88.333C66.1823 88.333 65.0549 87.9289 64.1055 87.1206C63.1562 86.3124 62.6815 85.3526 62.6815 84.2412Z" fill="#AD281E"/>
<path d="M2.57635 45.6424C2.57635 33.538 6.81975 23.6883 15.3065 16.0933C23.8944 8.4984 35.1091 4.70093 48.9506 4.70093C62.8932 4.70093 74.2595 8.6764 83.0493 16.6274C91.9403 24.5783 96.3857 32.8853 96.3857 41.5483C96.3857 42.6163 96.0321 43.5657 95.3249 44.3964C94.7187 45.1084 94.0115 45.4644 93.2032 45.4644H62.8932C60.5694 45.4644 58.4477 44.4557 56.5281 42.4383C54.6085 40.4209 52.0321 39.4122 48.7991 39.4122C43.9495 39.4122 41.5247 41.0736 41.5247 44.3964C41.5247 46.1764 42.6866 47.6598 45.0103 48.8465C47.4351 50.0332 51.8806 51.1013 58.3467 52.0506C73.4007 54.3054 84.1102 58.4589 90.4753 64.5111C96.9414 70.4447 100.174 79.523 100.174 91.7461C100.174 103.851 95.4259 113.76 85.9288 121.473C76.5327 129.068 64.2066 132.866 48.9506 132.866C33.6946 132.866 21.7222 129.187 13.0333 121.829C4.34443 114.472 0 105.512 0 94.9502C0 93.8822 0.3031 92.9921 0.9093 92.2801C1.61653 91.4494 2.4248 91.0341 3.3341 91.0341H32.1286C34.2503 91.0341 36.574 92.2208 39.0999 94.5942C41.7267 96.9676 45.3134 98.1543 49.8599 98.1543C57.4374 98.1543 61.2262 96.4929 61.2262 93.1701C61.2262 91.0341 59.8622 89.432 57.1343 88.364C54.4064 87.1773 49.2537 85.9905 41.6762 84.8038C15.6096 80.769 2.57635 67.7152 2.57635 45.6424Z" fill="#306EF7"/>
<path d="M140.442 131.085H109.526C108.414 131.085 107.454 130.611 106.646 129.661C105.838 128.712 105.434 127.585 105.434 126.279V11.2871C105.434 9.98176 105.838 8.85438 106.646 7.90501C107.454 6.95564 108.414 6.48096 109.526 6.48096H140.442C141.553 6.48096 142.513 6.95564 143.321 7.90501C144.129 8.85438 144.534 9.98176 144.534 11.2871V126.279C144.534 127.585 144.129 128.712 143.321 129.661C142.513 130.611 141.553 131.085 140.442 131.085Z" fill="#CA190C"/>
</svg>
